<?xml version="1.0" standalone="no"?>
<!DOCTYPE svg PUBLIC "-//W3C//DTD SVG 20010904//EN"
 "http://www.w3.org/TR/2001/REC-SVG-20010904/DTD/svg10.dtd">
<svg version="1.0" xmlns="http://www.w3.org/2000/svg"
 width="512.000000pt" height="512.000000pt" viewBox="0 0 512.000000 512.000000"
 preserveAspectRatio="xMidYMid meet">
<metadata>
Created by potrace 1.14, written by Peter Selinger 2001-2017
</metadata>
<g transform="translate(0.000000,512.000000) scale(0.100000,-0.100000)"
fill="#000000" stroke="none">
<path d="M2458 5095 c-1 -1 -34 -5 -73 -9 -70 -6 -82 -8 -185 -27 -86 -16 -90
-17 -175 -43 -276 -83 -538 -224 -749 -406 -55 -47 -181 -175 -221 -225 -22
-28 -46 -56 -52 -63 -28 -30 -144 -213 -185 -292 -95 -185 -165 -419 -186
-620 -16 -159 -5 -417 24 -540 3 -14 8 -36 10 -50 9 -46 45 -171 69 -233 102
-270 246 -489 465 -707 64 -63 134 -140 157 -170 122 -162 185 -339 197 -555
2 -38 8 -79 12 -90 15 -42 59 -88 101 -107 43 -19 73 -19 887 -20 835 0 843 0
882 21 86 46 103 78 114 215 10 123 29 208 69 309 55 139 107 211 263 372 188
192 259 282 356 445 54 92 162 337 162 368 0 6 7 32 16 58 9 25 17 56 20 68 2
11 6 32 9 46 3 14 8 42 11 64 3 21 8 48 10 60 7 37 16 174 17 254 1 146 -22
329 -62 482 -13 53 -52 174 -59 185 -4 6 -7 15 -8 21 -3 19 -113 235 -147 289
-86 137 -148 215 -272 340 -282 285 -667 480 -1065 540 -25 4 -56 9 -70 11
-32 5 -337 14 -342 9z"/>
<path d="M2565 783 c1 -55 -3 -75 -16 -67 -5 3 -9 25 -9 50 l0 44 -390 0 -390
0 0 -45 0 -44 58 -3 57 -3 1 -57 c0 -54 -1 -58 -23 -58 -21 0 -23 -5 -23 -45
0 -41 2 -45 25 -45 23 0 24 -2 24 -66 -1 -60 -3 -65 -20 -61 -16 4 -18 1 -13
-21 9 -35 41 -99 52 -104 5 -1 28 -19 51 -38 45 -38 126 -68 183 -69 26 -1 38
-6 42 -18 4 -10 25 -34 48 -53 l43 -35 137 -3 138 -4 0 177 c0 135 3 176 12
173 9 -3 13 -50 14 -174 1 -93 2 -174 3 -181 1 -9 36 -12 139 -10 110 3 144 7
172 22 34 17 90 72 90 88 0 4 10 7 23 7 40 0 120 28 170 59 46 30 108 104 114
138 10 54 9 58 -19 57 -27 0 -28 2 -28 53 0 52 0 53 30 53 30 0 30 1 30 55 0
54 -1 55 -28 55 -16 0 -31 2 -33 5 -3 2 -3 26 1 52 l5 48 60 0 60 0 0 55 -1
55 -395 3 -396 2 2 -47z"/>
</g>
</svg>
